<mxfile host="app.diagrams.net" modified="2022-05-04T05:30:22.829Z" agent="5.0 (Windows NT 10.0; Win64; x64) AppleWebKit/537.36 (KHTML, like Gecko) Chrome/101.0.4951.41 Safari/537.36 Edg/101.0.1210.32" etag="pKDAAB77UK7zvCg6sLv6" version="17.5.0" type="github">
  <diagram id="bAbn8hl5mbLafxKMVpMg" name="Page-1">
    <mxGraphModel dx="1038" dy="579" grid="1" gridSize="10" guides="1" tooltips="1" connect="1" arrows="1" fold="1" page="1" pageScale="1" pageWidth="850" pageHeight="1100" math="0" shadow="0">
      <root>
        <mxCell id="0" />
        <mxCell id="1" parent="0" />
        <mxCell id="p3mFZ6XsDzNMiNJtrRee-10" value="" style="edgeStyle=orthogonalEdgeStyle;rounded=0;orthogonalLoop=1;jettySize=auto;html=1;" parent="1" source="p3mFZ6XsDzNMiNJtrRee-1" target="p3mFZ6XsDzNMiNJtrRee-6" edge="1">
          <mxGeometry relative="1" as="geometry" />
        </mxCell>
        <mxCell id="p3mFZ6XsDzNMiNJtrRee-1" value="calculate the goal distance vector" style="whiteSpace=wrap;html=1;rounded=0;" parent="1" vertex="1">
          <mxGeometry x="65" y="200" width="120" height="60" as="geometry" />
        </mxCell>
        <mxCell id="p3mFZ6XsDzNMiNJtrRee-4" value="" style="edgeStyle=orthogonalEdgeStyle;rounded=0;orthogonalLoop=1;jettySize=auto;html=1;" parent="1" source="p3mFZ6XsDzNMiNJtrRee-2" target="p3mFZ6XsDzNMiNJtrRee-3" edge="1">
          <mxGeometry relative="1" as="geometry" />
        </mxCell>
        <mxCell id="p3mFZ6XsDzNMiNJtrRee-2" value="start" style="rounded=1;whiteSpace=wrap;html=1;" parent="1" vertex="1">
          <mxGeometry x="80" y="30" width="90" height="20" as="geometry" />
        </mxCell>
        <mxCell id="p3mFZ6XsDzNMiNJtrRee-5" value="" style="edgeStyle=orthogonalEdgeStyle;rounded=0;orthogonalLoop=1;jettySize=auto;html=1;" parent="1" source="p3mFZ6XsDzNMiNJtrRee-3" target="p3mFZ6XsDzNMiNJtrRee-1" edge="1">
          <mxGeometry relative="1" as="geometry" />
        </mxCell>
        <mxCell id="p3mFZ6XsDzNMiNJtrRee-3" value="get the agent id and initialize the position&lt;br&gt;array" style="rounded=0;whiteSpace=wrap;html=1;" parent="1" vertex="1">
          <mxGeometry x="65" y="90" width="120" height="60" as="geometry" />
        </mxCell>
        <mxCell id="p3mFZ6XsDzNMiNJtrRee-11" value="" style="edgeStyle=orthogonalEdgeStyle;rounded=0;orthogonalLoop=1;jettySize=auto;html=1;" parent="1" source="p3mFZ6XsDzNMiNJtrRee-6" target="p3mFZ6XsDzNMiNJtrRee-9" edge="1">
          <mxGeometry relative="1" as="geometry" />
        </mxCell>
        <mxCell id="p3mFZ6XsDzNMiNJtrRee-6" value="IF target distance &amp;gt; 1" style="rhombus;whiteSpace=wrap;html=1;rounded=0;" parent="1" vertex="1">
          <mxGeometry x="85" y="300" width="80" height="80" as="geometry" />
        </mxCell>
        <mxCell id="p3mFZ6XsDzNMiNJtrRee-7" value="yes" style="edgeStyle=orthogonalEdgeStyle;rounded=0;orthogonalLoop=1;jettySize=auto;html=1;" parent="1" source="p3mFZ6XsDzNMiNJtrRee-6" target="p3mFZ6XsDzNMiNJtrRee-8" edge="1">
          <mxGeometry relative="1" as="geometry" />
        </mxCell>
        <mxCell id="p3mFZ6XsDzNMiNJtrRee-8" value="goal vector normalize" style="rounded=1;whiteSpace=wrap;html=1;fillColor=#ffcc99;strokeColor=#36393d;" parent="1" vertex="1">
          <mxGeometry x="230" y="310" width="120" height="60" as="geometry" />
        </mxCell>
        <mxCell id="p3mFZ6XsDzNMiNJtrRee-13" value="" style="edgeStyle=orthogonalEdgeStyle;rounded=0;orthogonalLoop=1;jettySize=auto;html=1;" parent="1" source="p3mFZ6XsDzNMiNJtrRee-9" target="p3mFZ6XsDzNMiNJtrRee-12" edge="1">
          <mxGeometry relative="1" as="geometry" />
        </mxCell>
        <mxCell id="p3mFZ6XsDzNMiNJtrRee-15" style="edgeStyle=orthogonalEdgeStyle;rounded=0;orthogonalLoop=1;jettySize=auto;html=1;entryX=0.5;entryY=0;entryDx=0;entryDy=0;" parent="1" source="p3mFZ6XsDzNMiNJtrRee-9" target="p3mFZ6XsDzNMiNJtrRee-14" edge="1">
          <mxGeometry relative="1" as="geometry">
            <Array as="points">
              <mxPoint x="125" y="540" />
              <mxPoint x="360" y="540" />
              <mxPoint x="360" y="10" />
              <mxPoint x="425" y="10" />
            </Array>
          </mxGeometry>
        </mxCell>
        <mxCell id="p3mFZ6XsDzNMiNJtrRee-9" value="ELSE" style="rhombus;whiteSpace=wrap;html=1;rounded=0;" parent="1" vertex="1">
          <mxGeometry x="85" y="430" width="80" height="80" as="geometry" />
        </mxCell>
        <mxCell id="p3mFZ6XsDzNMiNJtrRee-12" value="user console" style="whiteSpace=wrap;html=1;rounded=0;" parent="1" vertex="1">
          <mxGeometry x="200" y="440" width="120" height="60" as="geometry" />
        </mxCell>
        <mxCell id="b2dws0NkJSmJ5mnQZh7v-4" value="" style="edgeStyle=orthogonalEdgeStyle;rounded=0;orthogonalLoop=1;jettySize=auto;html=1;" edge="1" parent="1" source="p3mFZ6XsDzNMiNJtrRee-14" target="b2dws0NkJSmJ5mnQZh7v-1">
          <mxGeometry relative="1" as="geometry" />
        </mxCell>
        <mxCell id="p3mFZ6XsDzNMiNJtrRee-14" value="call&amp;nbsp;setAgentPref&lt;br&gt;Velocity" style="rounded=1;whiteSpace=wrap;html=1;fillColor=#ffcc99;strokeColor=#36393d;" parent="1" vertex="1">
          <mxGeometry x="365" y="30" width="120" height="60" as="geometry" />
        </mxCell>
        <mxCell id="b2dws0NkJSmJ5mnQZh7v-42" value="" style="edgeStyle=orthogonalEdgeStyle;rounded=0;orthogonalLoop=1;jettySize=auto;html=1;" edge="1" parent="1" source="p3mFZ6XsDzNMiNJtrRee-18" target="p3mFZ6XsDzNMiNJtrRee-19">
          <mxGeometry relative="1" as="geometry" />
        </mxCell>
        <mxCell id="p3mFZ6XsDzNMiNJtrRee-18" value="IF reaction anim is not NA" style="rhombus;whiteSpace=wrap;html=1;rounded=0;" parent="1" vertex="1">
          <mxGeometry x="660" y="40" width="80" height="80" as="geometry" />
        </mxCell>
        <mxCell id="b2dws0NkJSmJ5mnQZh7v-44" value="" style="edgeStyle=orthogonalEdgeStyle;rounded=0;orthogonalLoop=1;jettySize=auto;html=1;" edge="1" parent="1" source="p3mFZ6XsDzNMiNJtrRee-19" target="p3mFZ6XsDzNMiNJtrRee-22">
          <mxGeometry relative="1" as="geometry" />
        </mxCell>
        <mxCell id="p3mFZ6XsDzNMiNJtrRee-19" value="reset into NA" style="whiteSpace=wrap;html=1;rounded=0;" parent="1" vertex="1">
          <mxGeometry x="650" y="160" width="120" height="60" as="geometry" />
        </mxCell>
        <mxCell id="b2dws0NkJSmJ5mnQZh7v-46" value="" style="edgeStyle=orthogonalEdgeStyle;rounded=0;orthogonalLoop=1;jettySize=auto;html=1;" edge="1" parent="1" source="p3mFZ6XsDzNMiNJtrRee-22" target="b2dws0NkJSmJ5mnQZh7v-45">
          <mxGeometry relative="1" as="geometry" />
        </mxCell>
        <mxCell id="p3mFZ6XsDzNMiNJtrRee-22" value="return position" style="whiteSpace=wrap;html=1;rounded=0;" parent="1" vertex="1">
          <mxGeometry x="650" y="270" width="120" height="60" as="geometry" />
        </mxCell>
        <mxCell id="b2dws0NkJSmJ5mnQZh7v-6" value="" style="edgeStyle=orthogonalEdgeStyle;rounded=0;orthogonalLoop=1;jettySize=auto;html=1;" edge="1" parent="1" source="b2dws0NkJSmJ5mnQZh7v-1" target="b2dws0NkJSmJ5mnQZh7v-5">
          <mxGeometry relative="1" as="geometry" />
        </mxCell>
        <mxCell id="b2dws0NkJSmJ5mnQZh7v-1" value="IF tower type is stock" style="rhombus;whiteSpace=wrap;html=1;" vertex="1" parent="1">
          <mxGeometry x="385" y="120" width="80" height="80" as="geometry" />
        </mxCell>
        <mxCell id="b2dws0NkJSmJ5mnQZh7v-41" style="edgeStyle=orthogonalEdgeStyle;rounded=0;orthogonalLoop=1;jettySize=auto;html=1;entryX=0.5;entryY=0;entryDx=0;entryDy=0;" edge="1" parent="1" source="b2dws0NkJSmJ5mnQZh7v-3" target="p3mFZ6XsDzNMiNJtrRee-18">
          <mxGeometry relative="1" as="geometry">
            <Array as="points">
              <mxPoint x="630" y="480" />
              <mxPoint x="630" y="20" />
              <mxPoint x="700" y="20" />
            </Array>
          </mxGeometry>
        </mxCell>
        <mxCell id="b2dws0NkJSmJ5mnQZh7v-3" value="construct the tower position array" style="whiteSpace=wrap;html=1;rounded=0;" vertex="1" parent="1">
          <mxGeometry x="365" y="450" width="120" height="60" as="geometry" />
        </mxCell>
        <mxCell id="b2dws0NkJSmJ5mnQZh7v-8" value="" style="edgeStyle=orthogonalEdgeStyle;rounded=0;orthogonalLoop=1;jettySize=auto;html=1;" edge="1" parent="1" source="b2dws0NkJSmJ5mnQZh7v-5" target="b2dws0NkJSmJ5mnQZh7v-7">
          <mxGeometry relative="1" as="geometry" />
        </mxCell>
        <mxCell id="b2dws0NkJSmJ5mnQZh7v-35" value="" style="edgeStyle=orthogonalEdgeStyle;rounded=0;orthogonalLoop=1;jettySize=auto;html=1;" edge="1" parent="1" source="b2dws0NkJSmJ5mnQZh7v-5" target="b2dws0NkJSmJ5mnQZh7v-34">
          <mxGeometry relative="1" as="geometry" />
        </mxCell>
        <mxCell id="b2dws0NkJSmJ5mnQZh7v-5" value="IF tower stock not undefined" style="rhombus;whiteSpace=wrap;html=1;" vertex="1" parent="1">
          <mxGeometry x="385" y="240" width="80" height="80" as="geometry" />
        </mxCell>
        <mxCell id="b2dws0NkJSmJ5mnQZh7v-40" value="" style="edgeStyle=orthogonalEdgeStyle;rounded=0;orthogonalLoop=1;jettySize=auto;html=1;" edge="1" parent="1" source="b2dws0NkJSmJ5mnQZh7v-7" target="b2dws0NkJSmJ5mnQZh7v-3">
          <mxGeometry relative="1" as="geometry" />
        </mxCell>
        <mxCell id="b2dws0NkJSmJ5mnQZh7v-7" value="set the current stock" style="whiteSpace=wrap;html=1;" vertex="1" parent="1">
          <mxGeometry x="365" y="350" width="120" height="60" as="geometry" />
        </mxCell>
        <mxCell id="b2dws0NkJSmJ5mnQZh7v-39" value="" style="edgeStyle=orthogonalEdgeStyle;rounded=0;orthogonalLoop=1;jettySize=auto;html=1;" edge="1" parent="1" source="b2dws0NkJSmJ5mnQZh7v-34" target="b2dws0NkJSmJ5mnQZh7v-38">
          <mxGeometry relative="1" as="geometry" />
        </mxCell>
        <mxCell id="b2dws0NkJSmJ5mnQZh7v-34" value="ELSE" style="rhombus;whiteSpace=wrap;html=1;" vertex="1" parent="1">
          <mxGeometry x="510" y="240" width="80" height="80" as="geometry" />
        </mxCell>
        <mxCell id="b2dws0NkJSmJ5mnQZh7v-38" value="Set the stock as 0" style="whiteSpace=wrap;html=1;" vertex="1" parent="1">
          <mxGeometry x="500" y="350" width="120" height="60" as="geometry" />
        </mxCell>
        <mxCell id="b2dws0NkJSmJ5mnQZh7v-45" value="end" style="ellipse;whiteSpace=wrap;html=1;rounded=0;" vertex="1" parent="1">
          <mxGeometry x="650" y="410" width="120" height="60" as="geometry" />
        </mxCell>
      </root>
    </mxGraphModel>
  </diagram>
</mxfile>
